<html>
<head>
<meta charset="UTF-8">
<meta name="viewport" content="width=device-width, initial-scale=1.0"/>

<style>
.comment
{
    padding-left: 20px;
    margin-top: 4px;
    margin-right: 4px;
    margin-bottom: 4px;
    border: 2px #000 solid;
}
.submission
{
    border: 4px #00f solid;
    padding-left: 20px;
}
.hidden
{
    display: none;
}
</style>
</head>
<body><div class="submission" id="t3_67kfr5">
    <p class="userinfo">
        <a href="https://www.reddit.com/u/vcdupper">vcdupper</a>
        <span class="score"> | 22 points</span>
        <span class="timestamp"> | Apr 25 2017 23:43:50</span>
    </p>
    <strong>[MOVIE] Terminator.2.Judgement.Day.Skynet.Special.Edition.ITA.ENG.AC3.BDRip.1080p.X265-ZMachine [5.97GB]</strong>
    <p><p>Add mega<br>
.nz/#!4CRAmQSZ<br>
!H1teFP1P8okH5R1ON2a9u5-WjAQmmRmtgcWbVl54whM  </p>
<hr>
<h3><a href="https://youtu.be/ixZnhA7Wmq4">Unsure How To Download?</a>  &lt;------CLICK HERE!!!</h3>
<hr>
<p>SPECS:<br>
Format : Matroska<br>
Format version : Version 4 / Version 2<br>
File size : 5.97 GiB<br>
Duration : 2h 36mn<br>
Overall bit rate : 5477 Kbps<br>
Movie name : Terminator 2:Il Giorno del Giudizio - Skynet Special Edition<br>
Encoded date : UTC 2014-12-26 23:37:29<br>
Writing application : mkvmerge v7.2.0 ('On Every Street') 32bit built on Sep 13 2014 15:42:11<br>
Writing library : libebml v1.3.0 + libmatroska v1.4.1  </p>
<p>Video<br>
ID : 1<br>
Format : HEVC<br>
Format/Info : High Efficiency Video Coding<br>
Codec ID : V_MPEGH/ISO/HEVC<br>
Duration : 2h 36mn<br>
Bit rate : 4088 Kbps<br>
Width : 1920 pixels<br>
Height : 816 pixels<br>
Display aspect ratio : 2.35:1<br>
Frame rate mode : Constant<br>
Frame rate : 23.976 fps<br>
Bits/(Pixel*Frame) : 0.109<br>
Stream size : 4.46 GiB (75%)<br>
Title : Video H.265 (Encoded by ZMachine)<br>
Default : Yes<br>
Forced : No  </p>
<p>Audio #1<br>
ID : 2<br>
Format : AC-3<br>
Format/Info : Audio Coding 3<br>
Mode extension : CM (complete main)<br>
Format settings, Endianness : Big<br>
Codec ID : A_AC3<br>
Duration : 2h 36mn<br>
Bit rate mode : Constant<br>
Bit rate : 640 Kbps<br>
Channel(s) : 6 channels<br>
Channel positions : Front: L C R, Side: L R, LFE<br>
Sampling rate : 48.0 KHz<br>
Bit depth : 16 bits<br>
Compression mode : Lossy<br>
Stream size : 715 MiB (12%)<br>
Title : Audio AC3 5.1<br>
Language : Italian<br>
Default : Yes<br>
Forced : No  </p>
<p>Audio #2<br>
ID : 3<br>
Format : AC-3<br>
Format/Info : Audio Coding 3<br>
Mode extension : CM (complete main)<br>
Format settings, Endianness : Big<br>
Codec ID : A_AC3<br>
Duration : 2h 36mn<br>
Bit rate mode : Constant<br>
Bit rate : 640 Kbps<br>
Channel(s) : 6 channels<br>
Channel positions : Front: L C R, Side: L R, LFE<br>
Sampling rate : 48.0 KHz<br>
Bit depth : 16 bits<br>
Compression mode : Lossy<br>
Stream size : 715 MiB (12%)<br>
Title : Audio AC3 5.1<br>
Language : English<br>
Default : No<br>
Forced : No  </p>
<p>Text #1<br>
ID : 4<br>
Format : ASS<br>
Codec ID : S_TEXT/ASS<br>
Codec ID/Info : Advanced Sub Station Alpha<br>
Compression mode : Lossless<br>
Title : Sub Forced<br>
Language : Italian<br>
Default : Yes<br>
Forced : Yes  </p>
<p>Text #2<br>
ID : 5<br>
Format : ASS<br>
Codec ID : S_TEXT/ASS<br>
Codec ID/Info : Advanced Sub Station Alpha<br>
Compression mode : Lossless<br>
Title : Sub<br>
Language : Italian<br>
Default : No<br>
Forced : No  </p>
<p>Text #3<br>
ID : 6<br>
Format : ASS<br>
Codec ID : S_TEXT/ASS<br>
Codec ID/Info : Advanced Sub Station Alpha<br>
Compression mode : Lossless<br>
Title : Sub<br>
Language : English<br>
Default : No<br>
Forced : No  </p></p>
    <p class="toolbar">
        <a href="https://www.reddit.com/r/megalinks/comments/67kfr5">permalink</a>
    </p>
</div>
<div class="comment" id="t1_dgsrja2">
    <p class="userinfo">
        <a
        class="toggle_hide_button"
        href="javascript:void(0)"
        onclick="toggle_collapse(this.parentElement.parentElement)">[-]
        </a>
        <a href="https://www.reddit.com/u/emily1974">emily1974</a>
        <span class="score"> | 2 points</span>
        <span class="timestamp"> | Apr 26 2017 23:48:50</span>
    </p>
    <div class="collapsible">
        <p>its great quality i downloaded this off torrent last year</p>
        <p class="toolbar">
            <a href="https://www.reddit.com/r/megalinks/comments/67kfr5/_/dgsrja2">permalink</a>
        </p>
        
    </div>
</div>

<div class="comment" id="t1_dgr8a38">
    <p class="userinfo">
        <a
        class="toggle_hide_button"
        href="javascript:void(0)"
        onclick="toggle_collapse(this.parentElement.parentElement)">[-]
        </a>
        <a href="https://www.reddit.com/u/hickay69">hickay69</a>
        <span class="score"> | 1 points</span>
        <span class="timestamp"> | Apr 26 2017 01:40:09</span>
    </p>
    <div class="collapsible">
        <p>Is this better than the recent 15 GB x264 version?</p>
        <p class="toolbar">
            <a href="https://www.reddit.com/r/megalinks/comments/67kfr5/_/dgr8a38">permalink</a>
        </p>
        <div class="comment" id="t1_dgrbvr3">
    <p class="userinfo">
        <a
        class="toggle_hide_button"
        href="javascript:void(0)"
        onclick="toggle_collapse(this.parentElement.parentElement)">[-]
        </a>
        <a href="https://www.reddit.com/u/Frodo_Bomb">Frodo_Bomb</a>
        <span class="score"> | 1 points</span>
        <span class="timestamp"> | Apr 26 2017 02:55:14</span>
    </p>
    <div class="collapsible">
        <p>It's only a little over 1/3 the file size so it's definitely lower quality, but I'm not sure what "skynet special edition" entails</p>
        <p class="toolbar">
            <a href="https://www.reddit.com/r/megalinks/comments/67kfr5/_/dgrbvr3">permalink</a>
        </p>
        <div class="comment" id="t1_dgsd3cu">
    <p class="userinfo">
        <a
        class="toggle_hide_button"
        href="javascript:void(0)"
        onclick="toggle_collapse(this.parentElement.parentElement)">[-]
        </a>
        <a href="https://www.reddit.com/u/gaythor">gaythor</a>
        <span class="score"> | 2 points</span>
        <span class="timestamp"> | Apr 26 2017 19:03:52</span>
    </p>
    <div class="collapsible">
        <p>I found this</p>
<p>On the 'Ultimate Edition' DVD as well as the 'Skynet Edition' Blu-ray, there are three versions of the film, albeit only two at the menu, the Theatrical and Special Edition versions. However, highlighting the 'Special Edition' option and keying in '82997' (August 29, 1997), will open a Extended Special Edition Option, with the T-1000 searching John's room and an Alternate ending added on and replaced. Some DVD players may need to push ENTER between each digit.</p>
        <p class="toolbar">
            <a href="https://www.reddit.com/r/megalinks/comments/67kfr5/_/dgsd3cu">permalink</a>
        </p>
        
    </div>
</div>
    </div>
</div>
    </div>
</div>
</body>

<script>
function toggle_collapse(comment_div)
{
    var button = comment_div.getElementsByClassName("toggle_hide_button")[0];
    var collapsible = comment_div.getElementsByClassName("collapsible")[0];
    if (collapsible.classList.contains("hidden"))
    {
        collapsible.classList.remove("hidden");
        button.innerText = "[-]";
    }
    else
    {
        collapsible.classList.add("hidden");
        button.innerText = "[+]";
    }
}
</script>
</html>
